<svg width="125" height="161" viewBox="0 0 125 161" fill="none" xmlns="http://www.w3.org/2000/svg">
<path d="M70.5795 68.3099C73.2391 65.3629 76.0673 61.8921 79.064 57.8973C79.8132 56.8963 80.5718 55.8672 81.3491 54.8007C82.5759 53.1074 83.503 51.7883 83.6903 51.5076C85.0669 49.5243 87.8108 45.595 88.5225 42.5171C89.9272 36.408 84.7298 27.5765 77.0038 25.2563C72.0311 23.7595 67.6483 25.4622 66.4684 25.9299C61.1491 28.0068 58.1805 32.329 56.654 34.593C55.6052 36.1554 54.9028 37.5119 54.4908 38.382C51.7094 43.1064 49.0404 47.0544 46.4932 50.2259C42.7098 55.1468 39.4321 57.6073 36.6414 57.6073C35.143 57.6073 33.9818 56.915 33.1577 55.5211C32.3336 54.1271 31.9965 51.2269 32.1369 46.8018L32.9891 24.1337C32.9142 15.2928 31.547 9.16505 28.8686 5.74097C26.1903 2.31689 22.4256 0.604858 17.5746 0.604858C13.9317 0.604858 10.7758 1.53104 8.09743 3.38341C5.4191 5.23578 3.38694 8.78148 1.99158 14.0205C0.596222 19.2595 -0.021856 26.9029 0.118616 36.9599L1.72937 125.509C1.94476 135.061 2.75949 142.349 4.1923 147.382C5.61576 152.406 7.54491 155.83 9.9704 157.645C12.3959 159.46 15.2147 160.376 18.4268 160.376C22.847 160.376 26.2933 158.842 28.7562 155.783C31.2192 152.714 32.5209 147.195 32.6614 139.205L33.4105 119.737C33.551 115.817 34.0848 113.16 35.0119 111.766C35.939 110.372 37.1565 109.679 38.6548 109.679C39.8723 109.679 41.0148 110.194 42.0824 111.232C43.15 112.271 44.7233 114.46 46.7929 117.809C49.2184 121.57 51.8499 125.322 54.65 129.064C56.0734 131.188 57.4313 132.843 58.4614 134.013C61.5331 137.502 63.9211 140.141 67.7326 141.114C69.3434 141.525 70.6264 141.469 71.2163 141.469C80.7591 141.469 88.4944 133.742 88.4944 124.208C88.4944 122.973 88.3352 121.87 88.3352 121.87C87.6891 118.23 85.301 115.714 83.4 113.693C82.604 112.851 81.9203 112.233 80.141 110.325C79.5978 109.745 79.0734 109.165 78.549 108.594C74.6626 104.291 71.4224 100.128 68.847 96.1048C66.7774 92.8959 65.382 90.2951 64.6703 88.293C63.9586 86.3003 63.6027 84.2983 63.6027 82.3056C63.6027 80.0229 64.0991 77.8711 65.1011 75.8316C66.1031 73.8015 67.9199 71.2849 70.5608 68.2912L70.5795 68.3099Z" fill="white"/>
<g clip-path="url(#clip0_110_1654)">
<path d="M98.0811 89.7159C98.0534 88.6439 97.7539 87.903 97.1938 87.4877C96.6337 87.0724 95.7907 86.8535 94.6761 86.8198L88.049 86.4999C86.3521 86.3764 84.9767 85.8095 83.9175 84.7992C82.8583 83.789 82.3259 82.4868 82.3259 80.8928C82.3259 79.2988 82.8195 78.0809 83.8011 77.0538C84.7826 76.0267 86.2023 75.4542 88.049 75.3307L95.1308 75.0108C96.1013 74.949 96.8333 74.6516 97.3324 74.1128C97.8315 73.5796 98.0811 72.6198 98.0811 71.2391L98.1255 65.7724C98.2142 61.3889 100.061 59.2 103.666 59.2C105.451 59.2 106.804 59.7051 107.731 60.7154C108.651 61.7256 109.189 63.3645 109.344 65.632L109.71 72.0641C109.771 73.2877 110.049 74.1015 110.548 74.5C111.047 74.8985 111.751 75.1286 112.661 75.1904H118.561C120.829 75.2802 122.465 75.8022 123.464 76.7507C124.462 77.6992 124.961 79.0351 124.961 80.7469C124.961 82.4588 124.428 83.817 123.369 84.8161C122.31 85.8095 120.613 86.3876 118.284 86.5392H112.333C111.485 86.5672 110.847 86.8086 110.426 87.252C110.004 87.6954 109.76 88.4868 109.699 89.6205L109.333 96.423C109.211 98.5053 108.684 100.139 107.742 101.317C106.804 102.496 105.44 103.085 103.654 103.085C100.111 103.085 98.2641 100.958 98.1144 96.6981L98.07 89.7103L98.0811 89.7159Z" fill="white"/>
</g>
<defs>
<clipPath id="clip0_110_1654">
<rect width="42.6404" height="43.8909" fill="white" transform="translate(82.3259 59.2)"/>
</clipPath>
</defs>
</svg>
