<svg width="62" height="61" viewBox="0 0 62 61" fill="none" xmlns="http://www.w3.org/2000/svg">
<path d="M22.1099 59.9999H39.8099C54.5598 59.9999 60.4598 54.0999 60.4598 39.3499V21.65C60.4598 6.89999 54.5598 1 39.8099 1H22.1099C7.35995 1 1.45996 6.89999 1.45996 21.65V39.3499C1.45996 54.0999 7.35995 59.9999 22.1099 59.9999Z" stroke="#FFC700" stroke-width="1.5" stroke-linecap="round" stroke-linejoin="round"/>
<path d="M30.9595 42.827C32.3154 42.827 33.658 42.5599 34.9107 42.041C36.1634 41.5221 37.3016 40.7616 38.2604 39.8028C39.2191 38.8441 39.9797 37.7059 40.4985 36.4532C41.0174 35.2005 41.2845 33.8579 41.2845 32.502C41.2845 31.1461 41.0174 29.8035 40.4985 28.5508C39.9797 27.2981 39.2191 26.1599 38.2604 25.2011C37.3016 24.2424 36.1634 23.4818 34.9107 22.9629C33.658 22.4441 32.3154 22.177 30.9595 22.177C28.2211 22.177 25.5949 23.2648 23.6586 25.2011C21.7223 27.1374 20.6345 29.7636 20.6345 32.502C20.6345 35.2403 21.7223 37.8665 23.6586 39.8028C25.5949 41.7391 28.2211 42.827 30.9595 42.827Z" stroke="#FFC700" stroke-width="2.5" stroke-linecap="round" stroke-linejoin="round"/>
<path d="M47.5864 15.7502H47.6218" stroke="#FFC700" stroke-width="3" stroke-linecap="round" stroke-linejoin="round"/>
</svg>
