<svg width="62" height="61" viewBox="0 0 62 61" fill="none" xmlns="http://www.w3.org/2000/svg">
<path d="M36.6699 22.535V31.09H44.3399C44.9299 31.09 45.2249 31.68 45.2249 32.27L44.0449 37.875C44.0449 38.17 43.4549 38.465 43.1599 38.465H36.6699V59.9999H27.8199V38.76H22.8049C22.2149 38.76 21.9199 38.465 21.9199 37.875V32.27C21.9199 31.68 22.2149 31.385 22.8049 31.385H27.8199V21.65C27.8199 16.635 31.6549 12.8 36.6699 12.8H44.6349C45.2249 12.8 45.5199 13.095 45.5199 13.685V20.765C45.5199 21.355 45.2249 21.65 44.6349 21.65H37.5549C36.9649 21.65 36.6699 21.945 36.6699 22.535Z" stroke="#FFC700" stroke-width="1.5" stroke-miterlimit="10" stroke-linecap="round"/>
<path d="M39.6199 59.9999H21.92C7.17001 59.9999 1.27002 54.0999 1.27002 39.3499V21.65C1.27002 6.89999 7.17001 1 21.92 1H39.6199C54.3699 1 60.2699 6.89999 60.2699 21.65V39.3499C60.2699 54.0999 54.3699 59.9999 39.6199 59.9999Z" stroke="#FFC700" stroke-width="1.5" stroke-linecap="round" stroke-linejoin="round"/>
</svg>
