<svg width="55" height="60" viewBox="0 0 55 60" fill="none" xmlns="http://www.w3.org/2000/svg">
<path d="M53.7141 58.0233C53.7141 47.175 42.0112 38.401 27.6029 38.401C13.1946 38.401 1.4917 47.175 1.4917 58.0233M27.6029 29.9914C31.6338 29.9914 35.4997 28.5147 38.35 25.8862C41.2002 23.2577 42.8015 19.6927 42.8015 15.9754C42.8015 12.2582 41.2002 8.69316 38.35 6.06465C35.4997 3.43615 31.6338 1.95947 27.6029 1.95947C23.572 1.95947 19.7062 3.43615 16.8559 6.06465C14.0056 8.69316 12.4043 12.2582 12.4043 15.9754C12.4043 19.6927 14.0056 23.2577 16.8559 25.8862C19.7062 28.5147 23.572 29.9914 27.6029 29.9914Z" stroke="#01723C" stroke-width="2.5" stroke-linecap="round" stroke-linejoin="round"/>
</svg>
