<svg width="146" height="127" viewBox="0 0 146 127" fill="none" xmlns="http://www.w3.org/2000/svg">
<g clip-path="url(#clip0_1_1378)">
<path d="M23.9451 61.1432C24.8489 60.1353 25.81 58.9482 26.8284 57.5819C27.083 57.2395 27.3408 56.8875 27.605 56.5228C28.0219 55.9436 28.3369 55.4925 28.4006 55.3965C28.8684 54.7181 29.8009 53.3743 30.0428 52.3216C30.5201 50.2321 28.7538 47.2116 26.1283 46.4181C24.4384 45.9061 22.949 46.4885 22.548 46.6484C20.7403 47.3588 19.7315 48.8371 19.2127 49.6114C18.8563 50.1457 18.6176 50.6097 18.4776 50.9073C17.5324 52.5231 16.6254 53.8734 15.7597 54.9581C14.474 56.6412 13.3601 57.4827 12.4118 57.4827C11.9026 57.4827 11.5079 57.2459 11.2279 56.7692C10.9478 56.2924 10.8332 55.3005 10.881 53.787L11.1706 46.0341C11.1451 43.0104 10.6805 40.9146 9.77028 39.7435C8.86009 38.5724 7.58073 37.9868 5.9322 37.9868C4.69421 37.9868 3.62171 38.3036 2.71152 38.9371C1.80132 39.5707 1.11072 40.7834 0.636532 42.5752C0.16234 44.3671 -0.047704 46.9812 3.33502e-05 50.4209L0.547422 80.7062C0.620619 83.9732 0.897496 86.4657 1.38442 88.1872C1.86816 89.9054 2.52375 91.0765 3.34801 91.6973C4.17228 92.318 5.13021 92.6316 6.2218 92.6316C7.72394 92.6316 8.8951 92.1068 9.73209 91.0605C10.5691 90.011 11.0115 88.1232 11.0592 85.3906L11.3138 78.732C11.3615 77.3913 11.5429 76.4826 11.858 76.0059C12.1731 75.5291 12.5868 75.2923 13.096 75.2923C13.5097 75.2923 13.898 75.4683 14.2608 75.8235C14.6236 76.1786 15.1582 76.9274 15.8616 78.0729C16.6858 79.3592 17.5801 80.6423 18.5317 81.9221C19.0154 82.6485 19.4769 83.2148 19.827 83.6148C20.8708 84.8083 21.6823 85.7106 22.9776 86.0434C23.525 86.1842 23.961 86.165 24.1615 86.165C27.4045 86.165 30.0332 83.522 30.0332 80.2615C30.0332 79.8391 29.9791 79.4616 29.9791 79.4616C29.7595 78.2169 28.948 77.3561 28.3019 76.665C28.0314 76.377 27.7991 76.1658 27.1944 75.5131C27.0098 75.3147 26.8316 75.1163 26.6534 74.9212C25.3327 73.4493 24.2315 72.0254 23.3563 70.6495C22.653 69.552 22.1788 68.6625 21.9369 67.9778C21.6951 67.2962 21.5741 66.6115 21.5741 65.93C21.5741 65.1492 21.7428 64.4133 22.0833 63.7157C22.4239 63.0214 23.0413 62.1607 23.9387 61.1368L23.9451 61.1432Z" fill="#01723C"/>
<path d="M34.0494 44.1847C35.0997 43.2088 36.3886 42.7192 37.9162 42.7192C39.4438 42.7192 40.6786 43.196 41.6842 44.1527C42.6899 45.1094 43.1927 46.3541 43.1927 47.8932C43.1927 49.5634 42.6422 50.8305 41.5378 51.7008C40.4335 52.568 39.1382 53.0575 37.6552 53.1663C35.9939 53.2751 34.7146 52.8975 33.8203 52.0304C32.9228 51.1633 32.4773 49.9282 32.4773 48.3219C32.4773 46.5429 33.0024 45.1638 34.0494 44.1847ZM32.8687 62.5639C32.8465 60.4617 33.0533 58.8426 33.4925 57.7067C33.9285 56.5708 34.5523 55.7837 35.3606 55.3517C36.169 54.9166 37.1205 54.7022 38.2121 54.7022C39.6315 54.7022 40.7645 55.2077 41.6047 56.2188C42.4449 57.23 42.8459 59.009 42.8013 61.5528L42.2762 78.5529C42.2762 80.5591 42.0693 82.095 41.6524 83.1637C41.2355 84.2324 40.6849 84.9651 39.9975 85.3619C39.3101 85.7554 38.5177 85.9538 37.6202 85.9538C36.2008 85.9538 35.1347 85.4707 34.425 84.5075C33.7153 83.5444 33.3366 81.9158 33.2952 79.6216L32.8687 62.5639Z" fill="#01723C"/>
<path d="M58.2174 95.8988C56.9603 95.8988 55.8337 95.8284 54.8408 95.6876C53.8446 95.5468 52.9663 95.3676 52.2088 95.15C50.5635 94.6477 49.4082 93.9373 48.7495 93.0094C48.0875 92.0847 47.7597 91.0864 47.7597 90.0209C47.7597 88.9554 48.1002 88.1587 48.7845 87.5059C49.4655 86.8532 50.4362 86.5268 51.6901 86.5268C52.944 86.5268 54.1947 86.6804 55.4423 86.9844C56.6866 87.2883 57.9373 87.4419 59.1944 87.4419C60.687 87.4419 61.9918 87.0707 63.1089 86.3316C64.2227 85.5925 64.7829 84.6326 64.7829 83.4583V83.3591C64.7829 82.444 64.4583 81.9864 63.809 81.9864C63.268 81.9864 62.6506 82.4344 61.9568 83.3239C61.3712 84.1302 60.652 84.7286 59.7959 85.1189C58.9398 85.5093 57.8737 85.7077 56.5975 85.7077C54.7994 85.7077 53.0999 85.1029 51.4991 83.8966C49.8952 82.6871 48.5935 80.8377 47.5847 78.3451C46.579 75.8525 46.073 72.7008 46.073 68.89V67.9108C46.073 64.1672 46.6204 61.1018 47.712 58.718C48.8036 56.3343 50.1911 54.5712 51.8683 53.4289C53.5455 52.2866 55.2513 51.7139 56.9826 51.7139C58.5197 51.7139 59.7259 52.0338 60.6043 52.677C61.4826 53.3201 62.1796 54.1297 62.6983 55.1088C63.5226 56.4143 64.3214 57.067 65.1011 57.067C65.9668 57.067 66.4855 56.523 66.6605 55.4351L66.7242 55.1088C67.0711 52.9746 68.2709 51.9091 70.33 51.9091C71.6284 51.9091 72.6914 52.485 73.5124 53.6401C74.3367 54.7952 74.7154 56.9486 74.6486 60.1067L74.324 78.2651C74.2603 82.556 73.6525 85.9892 72.5036 88.5682C71.3547 91.1472 69.6139 93.0158 67.2748 94.1677C64.9356 95.3228 61.9154 95.8988 58.2142 95.8988H58.2174ZM56.5116 63.8472C55.6332 65.2071 55.1972 66.9541 55.1972 69.0883V69.7411C55.1972 71.6577 55.63 73.2576 56.4957 74.5407C57.3613 75.8269 58.5102 76.4669 59.9391 76.4669C61.454 76.4669 62.657 75.9069 63.5449 74.7838C64.4328 73.6639 64.8752 71.8401 64.8752 69.3123V68.6916C64.8752 65.9718 64.4296 64.1416 63.5449 63.2041C62.657 62.2665 61.454 61.7994 59.9391 61.7994C58.5325 61.7994 57.3899 62.4809 56.5116 63.8408V63.8472Z" fill="#01723C"/>
<path d="M87.0444 85.887C84.2724 85.887 82.0415 84.8695 80.3548 82.8344C78.6681 80.7994 77.8215 77.7661 77.8215 73.7409V73.5137C77.8215 70.0964 78.7349 67.3958 80.5648 65.4152C82.3948 63.4346 84.6957 62.4426 87.4677 62.4426C88.6802 62.4426 89.6636 62.6346 90.4242 63.0154C91.1816 63.3962 91.8531 63.9017 92.4387 64.5353C93.1548 65.2968 93.8136 65.5368 94.4214 65.2552C94.832 65.0376 95.0388 64.2441 95.0388 62.8714V62.6762C95.0388 59.8893 93.6544 58.4974 90.8825 58.4974C89.4313 58.4974 88.1233 58.7438 86.9521 59.2333C85.7841 59.7229 84.6448 59.9693 83.5405 59.9693C82.5889 59.9693 81.8092 59.6333 81.2013 58.9581C80.5935 58.283 80.2911 57.3711 80.2911 56.216C80.2911 54.6481 80.7558 53.397 81.6883 52.4595C82.6175 51.522 83.8842 50.7829 85.4882 50.2389C86.3983 49.9349 87.3881 49.6886 88.4606 49.503C89.5331 49.3174 90.6406 49.2246 91.7895 49.2246C94.6474 49.2246 96.9929 49.7462 98.8228 50.7925C100.653 51.8388 101.996 53.573 102.852 56.0016C103.708 58.4302 104.09 61.7227 104.004 65.8791L103.842 70.9411C103.819 72.2914 103.924 73.4241 104.15 74.3392C104.376 75.2543 104.621 76.1022 104.882 76.8862C105.099 77.5165 105.293 78.1501 105.468 78.7804C105.64 79.4107 105.729 80.1211 105.729 80.9018C105.729 82.0569 105.321 83.0584 104.51 83.9064C103.698 84.7543 102.565 85.1798 101.114 85.1798C100.249 85.1798 99.4625 84.9719 98.7592 84.5591C98.0558 84.1463 97.4225 83.4392 96.8592 82.4377C96.3818 81.5898 95.9172 81.1642 95.4621 81.1642C95.007 81.1642 94.5073 81.5546 93.9695 82.3385C93.2534 83.4488 92.3496 84.3191 91.258 84.9495C90.1632 85.5798 88.7629 85.8966 87.0508 85.8966L87.0444 85.887ZM93.3616 76.6142C94.1732 75.8303 94.5805 74.6976 94.5805 73.2193V72.7937C94.5805 71.5746 94.2655 70.6979 93.6385 70.1636C93.0116 69.6292 92.1459 69.3188 91.0416 69.2324C89.5681 69.1237 88.4542 69.434 87.6968 70.1636C86.9394 70.8931 86.5607 71.9554 86.5607 73.3473V73.6417C86.5607 76.4062 87.8177 77.7885 90.3287 77.7885C91.5413 77.7885 92.5533 77.3981 93.3648 76.6142H93.3616Z" fill="#01723C"/>
<path d="M55.4835 46.5974C56.1455 45.4967 56.8616 44.4344 57.6285 43.4073C58.1568 42.697 57.2466 43.8777 57.829 43.1513C57.95 42.9978 58.0741 42.8474 58.195 42.6938C58.526 42.2906 58.8633 41.8939 59.2071 41.5035C59.9804 40.63 60.7919 39.7884 61.6385 38.9853C65.7152 35.1136 70.6831 32.2755 76.1061 30.8132C87.684 27.6967 100.073 31.1108 108.475 39.6828C111.136 42.3962 113.061 45.0168 114.869 48.5173C116.661 51.9922 121.88 48.9204 120.091 45.4487C115.378 36.3039 107.132 29.0182 97.4447 25.6585C84.441 21.1501 69.9289 24.1898 59.398 32.8866C55.7954 35.8624 52.6766 39.5197 50.2643 43.5321C48.2466 46.8886 53.4722 49.9475 55.4867 46.6006L55.4835 46.5974Z" fill="#FFC700"/>
<path d="M47.0626 15.784C49.2712 18.7853 51.4799 21.7867 53.6885 24.7848C54.6592 26.1031 56.3077 26.7686 57.8258 25.8759C59.1179 25.1144 59.888 23.0442 58.911 21.7163C56.7024 18.715 54.4937 15.7136 52.2851 12.7155C51.3144 11.3972 49.6659 10.7317 48.1478 11.6244C46.8557 12.3859 46.0856 14.4561 47.0626 15.784Z" fill="#FFC700"/>
<path d="M83.9351 2.93396C83.8587 6.65204 83.7791 10.3701 83.7027 14.0882C83.62 18.0014 89.6667 18.0014 89.7495 14.0882C89.8259 10.3701 89.9054 6.65204 89.9818 2.93396C90.0645 -0.97929 84.0178 -0.97929 83.9351 2.93396Z" fill="#FFC700"/>
<path d="M120.384 14.2645C117.997 17.1059 115.614 19.9504 113.227 22.7918C112.173 24.0461 112.005 25.8603 113.227 27.0922C114.306 28.1769 116.444 28.3529 117.504 27.0922C119.891 24.2509 122.275 21.4063 124.661 18.565C125.715 17.3107 125.884 15.4964 124.661 14.2645C123.583 13.1798 121.444 13.0039 120.384 14.2645Z" fill="#FFC700"/>
<path d="M142.261 44.3992C138.699 45.404 135.135 46.4055 131.574 47.4102C127.831 48.4629 129.422 54.3312 133.181 53.2721C136.742 52.2674 140.307 51.2658 143.868 50.2611C147.61 49.2084 146.019 43.3401 142.261 44.3992Z" fill="#FFC700"/>
<path d="M111.686 83.8454C111.231 84.4502 112.065 83.3783 111.699 83.8326C111.581 83.9766 111.47 84.1238 111.352 84.2678C111.021 84.6773 110.684 85.0773 110.337 85.4709C109.424 86.5108 108.45 87.4995 107.431 88.4338C104.72 90.92 101.608 92.9614 98.2436 94.4749C90.5197 97.953 81.6628 97.9978 73.7289 95.246C70.0436 93.9661 68.4587 99.8376 72.1217 101.108C81.4814 104.356 91.8055 103.92 100.866 99.9176C107.256 97.0922 112.718 92.491 116.909 86.9139C117.892 85.6021 117.116 83.5158 115.824 82.7543C114.274 81.8424 112.673 82.5303 111.686 83.8454Z" fill="#FFC700"/>
<path d="M122.847 110.442C120.581 107.501 118.319 104.561 116.053 101.62C115.053 100.321 112.829 100.561 111.776 101.62C110.499 102.903 110.773 104.615 111.776 105.92C114.041 108.861 116.304 111.802 118.57 114.742C119.569 116.041 121.794 115.801 122.847 114.742C124.124 113.459 123.85 111.747 122.847 110.442Z" fill="#FFC700"/>
<path d="M85.3959 123.96C85.6536 120.248 85.9114 116.54 86.1724 112.828C86.287 111.19 84.7021 109.789 83.149 109.789C81.4177 109.789 80.2402 111.184 80.1257 112.828C79.8679 116.54 79.6101 120.248 79.3491 123.96C79.2346 125.598 80.8194 127 82.3725 127C84.1038 127 85.2813 125.605 85.3959 123.96Z" fill="#FFC700"/>
<path d="M142.865 80.572C139.412 79.2378 135.959 77.9035 132.506 76.5692C130.982 75.9804 129.19 77.2187 128.786 78.6938C128.318 80.4089 129.368 81.8423 130.899 82.4343C134.352 83.7686 137.805 85.1028 141.258 86.4371C142.782 87.0259 144.574 85.7876 144.978 84.3125C145.446 82.5975 144.396 81.164 142.865 80.572Z" fill="#FFC700"/>
<path d="M48.5808 112.47C51.0823 109.728 53.5805 106.989 56.082 104.247C58.7075 101.367 54.443 97.0572 51.8047 99.9465C49.3033 102.689 46.805 105.428 44.3036 108.17C41.678 111.05 45.9426 115.36 48.5808 112.47Z" fill="#FFC700"/>
<path d="M130.158 63.5846C129.317 63.5974 128.461 63.6614 125.826 63.6422C125.015 63.6358 124.789 63.4566 124.626 63.3478C124.022 62.9478 123.834 62.2439 123.77 61.9079C123.79 60.8488 123.739 59.9657 123.684 59.3194C123.519 57.4027 123.223 56.5964 123.112 56.3084C122.758 55.4093 122.539 55.0253 122.179 54.7342C120.292 53.2047 116.575 54.9037 117.304 58.0011C117.593 59.2362 117.794 60.4777 117.915 61.7223C117.927 61.8247 118.032 62.6599 117.425 63.271C117.036 63.6614 116.572 63.7446 116.403 63.7638L111.702 63.8278C107.813 63.879 107.887 69.9584 111.782 69.9072C113.271 69.888 114.761 69.8656 116.253 69.8464C116.508 69.8432 116.969 69.9584 117.199 70.3136C117.367 70.5728 117.351 70.8863 117.179 71.6703C116.947 72.723 116.683 73.4685 116.683 73.4685C116.193 74.854 115.964 75.5483 115.945 75.6027C115.353 77.1322 116.654 78.9336 118.106 79.3144C119.84 79.7688 121.202 78.6776 121.797 77.1418C122.517 75.2859 123.058 73.3757 123.436 71.4367C123.481 71.2511 123.646 70.672 124.2 70.2208C124.741 69.7792 125.32 69.7312 125.511 69.7216L130.24 69.6576C134.129 69.6064 134.056 63.527 130.161 63.5782L130.158 63.5846Z" fill="#494949"/>
</g>
<defs>
<clipPath id="clip0_1_1378">
<rect width="146" height="127" fill="white"/>
</clipPath>
</defs>
</svg>
