<svg width="76" height="78" viewBox="0 0 76 78" fill="none" xmlns="http://www.w3.org/2000/svg">
<path d="M53.5063 46.9883C57.7748 47.7224 62.4796 46.9564 65.7822 44.6903C70.1754 41.6901 70.1754 36.7748 65.7822 33.7746C62.4484 31.5085 57.6814 30.7425 53.4128 31.5085M22.4426 46.9883C18.1741 47.7224 13.4694 46.9564 10.1667 44.6903C5.77354 41.6901 5.77354 36.7748 10.1667 33.7746C13.5005 31.5085 18.2676 30.7425 22.5361 31.5085M56.7155 23.7527C56.5194 23.7207 56.3196 23.7207 56.1235 23.7527C54.0442 23.6756 52.0755 22.7735 50.6336 21.2368C49.1917 19.7002 48.3895 17.6495 48.3965 15.5181C48.3965 10.9539 51.9796 7.28345 56.4351 7.28345C58.567 7.28345 60.6117 8.15102 62.1192 9.69531C63.6267 11.2396 64.4736 13.3341 64.4736 15.5181C64.4679 17.651 63.6573 19.6991 62.2113 21.2338C60.7654 22.7686 58.7961 23.6711 56.7155 23.7527ZM19.2334 23.7527C19.4204 23.7207 19.6385 23.7207 19.8254 23.7527C21.9047 23.6756 23.8734 22.7735 25.3153 21.2368C26.7572 19.7002 27.5594 17.6495 27.5524 15.5181C27.5524 10.9539 23.9693 7.28345 19.5138 7.28345C17.3819 7.28345 15.3373 8.15102 13.8297 9.69531C12.3222 11.2396 11.4753 13.3341 11.4753 15.5181C11.5065 19.9864 14.9337 23.5931 19.2334 23.7527ZM38.0212 47.5947C37.8251 47.5628 37.6253 47.5628 37.4292 47.5947C35.3499 47.5177 33.3812 46.6155 31.9393 45.0789C30.4974 43.5423 29.6952 41.4915 29.7022 39.3601C29.7022 34.796 33.2853 31.1255 37.7408 31.1255C39.8727 31.1255 41.9174 31.9931 43.4249 33.5374C44.9324 35.0817 45.7793 37.1762 45.7793 39.3601C45.7482 43.8285 42.3209 47.4671 38.0212 47.5947ZM28.9545 57.6486C24.5613 60.6488 24.5613 65.564 28.9545 68.5642C33.9396 71.9794 42.1028 71.9794 47.0879 68.5642C51.4811 65.564 51.4811 60.6488 47.0879 57.6486C42.1339 54.2654 33.9396 54.2654 28.9545 57.6486Z" stroke="#01723C" stroke-width="2.5" stroke-linecap="round" stroke-linejoin="round"/>
</svg>
