<svg width="66" height="66" viewBox="0 0 66 66" fill="none" xmlns="http://www.w3.org/2000/svg">
<path d="M19.9043 27.238V21.9999C19.9043 13.3309 22.5233 6.28564 35.6186 6.28564C48.7138 6.28564 51.3329 13.3309 51.3329 21.9999V27.238M35.6186 49.4999C37.3551 49.4999 39.0205 48.8101 40.2484 47.5822C41.4764 46.3543 42.1662 44.6888 42.1662 42.9523C42.1662 41.2158 41.4764 39.5504 40.2484 38.3224C39.0205 37.0945 37.3551 36.4047 35.6186 36.4047C33.882 36.4047 32.2166 37.0945 30.9887 38.3224C29.7608 39.5504 29.071 41.2158 29.071 42.9523C29.071 44.6888 29.7608 46.3543 30.9887 47.5822C32.2166 48.8101 33.882 49.4999 35.6186 49.4999Z" stroke="#01723C" stroke-width="2.5" stroke-linecap="round" stroke-linejoin="round"/>
<path d="M48.7142 58.6661H22.5237C12.0475 58.6661 9.42847 56.0471 9.42847 45.5709V40.3328C9.42847 29.8566 12.0475 27.2375 22.5237 27.2375H48.7142C59.1904 27.2375 61.8094 29.8566 61.8094 40.3328V45.5709C61.8094 56.0471 59.1904 58.6661 48.7142 58.6661Z" stroke="#01723C" stroke-width="2.5" stroke-linecap="round" stroke-linejoin="round"/>
</svg>
