<svg width="74" height="74" viewBox="0 0 74 74" fill="none" xmlns="http://www.w3.org/2000/svg">
<path d="M33.222 51.4951V57.6657C33.222 62.8941 28.3585 67.1193 22.3702 67.1193C16.382 67.1193 11.488 62.8941 11.488 57.6657V51.4951C11.488 56.7234 16.3516 60.4319 22.3702 60.4319C28.3585 60.4319 33.222 56.693 33.222 51.4951Z" stroke="#01723C" stroke-width="2.5" stroke-linecap="round" stroke-linejoin="round"/>
<path d="M33.2161 43.1358C33.2161 44.6556 32.7905 46.0539 32.061 47.2698C30.2675 50.2183 26.5895 52.0726 22.3339 52.0726C18.0783 52.0726 14.4002 50.1879 12.6068 47.2698C11.8772 46.0539 11.4517 44.6556 11.4517 43.1358C11.4517 40.5216 12.6675 38.181 14.613 36.4788C16.5888 34.7462 19.2941 33.7126 22.3035 33.7126C25.3128 33.7126 28.0181 34.7765 29.994 36.4788C32.0002 38.1506 33.2161 40.5216 33.2161 43.1358Z" stroke="#01723C" stroke-width="2.5" stroke-linecap="round" stroke-linejoin="round"/>
<path d="M33.222 43.1357V51.495C33.222 56.7233 28.3585 60.4317 22.3702 60.4317C16.382 60.4317 11.488 56.6929 11.488 51.495V43.1357C11.488 37.9074 16.3516 33.6822 22.3702 33.6822C25.3796 33.6822 28.0849 34.7461 30.0607 36.4483C32.0062 38.1506 33.222 40.5216 33.222 43.1357ZM67.4128 33.591V39.8528C67.4128 41.5247 66.0754 42.8925 64.3731 42.9533H58.4153C55.1324 42.9533 52.123 40.552 51.8495 37.2691C51.6671 35.354 52.3966 33.5606 53.6733 32.3143C54.798 31.1592 56.3482 30.4905 58.0505 30.4905H64.3731C66.0754 30.5513 67.4128 31.9191 67.4128 33.591Z" stroke="#01723C" stroke-width="2.5" stroke-linecap="round" stroke-linejoin="round"/>
<path d="M6.61841 32.1623V26.0829C6.61841 17.8148 11.6036 12.0394 19.3548 11.0667C20.1452 10.9451 20.9659 10.8843 21.817 10.8843H49.1745C49.9648 10.8843 50.7248 10.9147 51.4543 11.0363C59.2968 11.9482 64.3731 17.754 64.3731 26.0829V30.4905H58.0505C56.3483 30.4905 54.798 31.1592 53.6733 32.3143C52.3966 33.5606 51.6671 35.354 51.8495 37.2691C52.123 40.552 55.1324 42.9533 58.4153 42.9533H64.3731V47.3609C64.3731 56.4801 58.2937 62.5595 49.1745 62.5595H41.5752" stroke="#01723C" stroke-width="2.5" stroke-linecap="round" stroke-linejoin="round"/>
</svg>
